<?xml version="1.0" standalone="no"?>
<!DOCTYPE svg PUBLIC "-//W3C//DTD SVG 20010904//EN"
 "http://www.w3.org/TR/2001/REC-SVG-20010904/DTD/svg10.dtd">
<svg version="1.0" xmlns="http://www.w3.org/2000/svg"
 width="16.000000pt" height="16.000000pt" viewBox="0 0 16.000000 16.000000"
 preserveAspectRatio="xMidYMid meet">
<metadata>
Created by potrace 1.11, written by Peter Selinger 2001-2013
</metadata>
<g transform="translate(0.000000,16.000000) scale(0.006154,-0.006154)"
fill="#000000" stroke="none">
<path d="M676 2103 c-349 -62 -614 -341 -662 -698 -9 -73 -10 -176 -1 -182 4
-2 5 -8 3 -11 -4 -6 7 -64 29 -157 13 -54 79 -177 132 -247 231 -303 635 -397
979 -227 46 23 84 46 84 50 0 4 8 10 18 13 22 8 119 99 164 156 55 69 114 186
141 280 21 72 28 86 48 88 33 5 68 31 84 61 46 90 7 174 -96 205 -10 2 -19 21
-23 46 -17 108 -110 287 -198 381 -179 191 -455 286 -702 242z m-127 -100 c-8
-9 -24 -28 -37 -42 -59 -65 -168 -305 -174 -387 -2 -21 -6 -23 -35 -18 -26 5
-37 1 -57 -19 -34 -34 -42 -72 -25 -121 10 -30 23 -45 46 -56 49 -23 49 -40
-3 -96 -73 -78 -107 -163 -80 -200 12 -16 19 -17 62 -7 27 7 56 14 65 18 12 4
18 -6 28 -47 36 -145 98 -278 178 -381 40 -51 42 -56 19 -47 -155 59 -295 184
-386 345 -24 42 -72 175 -64 175 3 0 0 8 -5 18 -6 11 -12 66 -15 123 -3 62 -2
85 3 57 9 -63 39 -102 80 -106 59 -6 92 52 76 134 -7 40 -48 84 -77 84 -11 0
-33 -13 -50 -30 -35 -36 -40 -37 -33 -7 3 12 7 34 10 50 17 92 35 142 81 227
76 139 182 241 321 311 89 44 90 45 72 22z m-9 -465 c18 -19 21 -32 17 -77 -3
-46 -9 -59 -36 -83 -95 -85 -180 51 -94 152 31 38 82 41 113 8z m-175 -75 c5
-26 1 -46 -11 -69 -31 -58 -40 -49 -32 35 3 42 7 83 8 91 1 26 27 -16 35 -57z
m483 -43 c24 -23 28 -45 10 -56 -10 -7 -33 15 -41 40 -6 17 -57 -10 -57 -30 0
-16 35 -54 50 -54 15 0 58 -52 63 -76 6 -31 -23 -70 -57 -76 -50 -10 -112 39
-91 72 10 16 23 12 30 -10 9 -29 54 -38 72 -15 7 11 13 22 13 25 0 14 -36 47
-66 63 -52 27 -65 77 -29 112 30 31 73 32 103 5z m204 11 c4 0 5 -7 2 -15 -3
-8 -17 -13 -34 -12 -47 3 -67 -9 -68 -43 -1 -30 1 -31 42 -31 47 0 57 -5 50
-25 -3 -7 -18 -11 -37 -10 -43 4 -57 -10 -55 -56 l1 -38 45 1 c27 0 47 -5 53
-13 11 -19 7 -21 -53 -23 -85 -3 -84 -5 -83 131 1 66 4 124 8 129 5 8 96 12
129 5z m164 -16 c14 -9 25 -26 25 -40 9 -174 -3 -204 -85 -209 -62 -4 -64 1
-63 138 1 118 2 125 22 129 34 6 76 -2 101 -18z m168 15 c28 -10 50 -45 42
-66 -7 -17 -36 -7 -36 12 0 22 -42 35 -59 19 -20 -20 -5 -48 44 -83 52 -37 66
-65 53 -104 -14 -39 -76 -58 -112 -35 -28 19 -43 54 -28 69 6 6 17 -1 31 -20
15 -22 26 -28 45 -25 24 5 39 34 30 56 -2 7 -27 27 -54 45 -28 17 -51 39 -51
47 -1 8 -2 21 -3 28 -4 21 14 48 37 57 29 12 32 12 61 0z m-702 -37 c39 -35 3
-142 -54 -162 -30 -11 -70 -1 -83 19 -24 39 13 142 55 154 34 9 64 5 82 -11z
m859 -15 c4 -98 -2 -188 -12 -188 -16 0 -59 55 -60 77 -1 13 -2 29 -3 36 -4
20 23 79 42 93 26 20 32 17 33 -18z m-1123 -63 c71 -30 161 -139 162 -197 0
-9 -7 -24 -16 -32 -28 -29 -59 -29 -120 0 -63 29 -70 30 -95 20 -13 -6 -18 6
-28 66 -7 40 -15 79 -17 86 -4 15 48 72 66 72 6 0 27 -7 48 -15z"/>
<path d="M1143 1403 c-9 -3 -13 -33 -13 -104 0 -98 0 -99 24 -99 43 0 54 22
54 104 0 45 -5 79 -11 84 -18 13 -41 20 -54 15z"/>
<path d="M1776 1413 c-8 -32 -6 -145 4 -182 15 -56 79 -81 134 -51 33 17 42
50 40 158 0 79 -2 87 -20 87 -17 0 -19 -9 -22 -94 -3 -101 -11 -121 -47 -121
-37 0 -47 24 -50 117 -1 48 -3 91 -4 96 -2 14 -30 7 -35 -10z"/>
<path d="M1996 1423 c-3 -4 -6 -60 -6 -125 0 -100 3 -120 16 -125 22 -8 32 12
27 53 -5 37 -3 38 59 49 57 9 83 78 48 125 -16 21 -28 25 -78 27 -33 1 -63 -1
-66 -4z m108 -55 c16 -26 -4 -52 -42 -56 -30 -3 -31 -2 -29 38 1 39 3 41 31
38 16 -2 34 -11 40 -20z"/>
<path d="M2186 1423 c-3 -4 -6 -60 -6 -125 0 -98 3 -120 15 -125 23 -8 28 2
29 57 0 41 3 50 18 50 16 0 56 -51 71 -92 3 -10 16 -18 28 -18 18 0 20 4 15
28 -4 15 -16 39 -26 54 -24 32 -25 48 -5 48 16 0 31 43 26 75 -6 40 -28 52
-95 53 -35 0 -67 -2 -70 -5z m112 -42 c8 -4 12 -19 10 -32 -3 -21 -8 -24 -43
-24 -38 0 -40 2 -42 33 -1 30 1 32 30 32 18 0 38 -4 45 -9z"/>
<path d="M2393 1418 c-6 -7 -10 -65 -9 -128 1 -97 3 -115 17 -118 21 -4 26 17
23 108 -2 82 5 71 29 -45 10 -47 17 -61 33 -63 17 -2 23 8 41 80 l21 83 1 -78
c1 -60 4 -79 16 -84 9 -3 18 -3 21 0 8 7 7 235 -1 247 -3 5 -17 10 -30 10 -20
0 -26 -7 -35 -40 -5 -22 -15 -58 -21 -81 -11 -45 -15 -46 -23 -9 -20 106 -31
129 -62 130 -6 0 -16 -6 -21 -12z"/>
</g>
</svg>
